<?xml version="1.0" encoding="UTF-8"?>
<svg xmlns="http://www.w3.org/2000/svg" xmlns:xlink="http://www.w3.org/1999/xlink" width="334px" height="100px" viewBox="0 0 332 100" version="1.1">
<g id="surface1">
<path style=" stroke:none;fill-rule:nonzero;fill:rgb(0%,58.823532%,100%);fill-opacity:1;" d="M 4.09375 37.199219 L 2.796875 45.449219 L 15.925781 45.449219 C 5.589844 54.800781 0 69.351562 0 78.75 C 0 85.699219 2.195312 91.101562 6.640625 94.800781 C 10.183594 97.800781 15.078125 99.449219 21.167969 99.851562 L 21.765625 99.898438 L 21.765625 97 L 21.316406 96.898438 C 15.777344 95.648438 6.539062 91.949219 6.441406 80.699219 C 6.390625 72.300781 15.027344 56.601562 25.011719 50 L 22.367188 65.25 L 30.804688 65.25 L 35.546875 37.25 Z M 4.09375 37.199219 "/>
<path style=" stroke:none;fill-rule:nonzero;fill:rgb(0%,58.823532%,100%);fill-opacity:1;" d="M 12.28125 0 C 7.9375 0 4.394531 3.550781 4.34375 7.851562 L 4.042969 29.949219 L 8.585938 30 L 13.082031 30 L 13.328125 9.050781 L 50.472656 9.050781 L 50.722656 65.800781 L 38.839844 65.800781 L 37.292969 74.851562 L 51.820312 74.851562 C 56.164062 74.851562 59.761719 70.898438 59.808594 66.550781 L 59.660156 0 Z M 12.28125 0 "/>
<path style=" stroke:none;fill-rule:nonzero;fill:rgb(0%,23.529412%,27.450982%);fill-opacity:1;" d="M 138.441406 58.5 C 138.441406 61.351562 137.542969 63.550781 135.746094 65.101562 C 133.898438 66.699219 131.800781 67.5 129.207031 67.5 C 127.207031 67.5 125.5625 67.050781 124.3125 66.101562 C 123.066406 65.148438 122.117188 63.898438 121.566406 62.351562 C 120.96875 60.75 120.667969 58.949219 120.667969 57 L 120.667969 34 L 111.480469 34 L 111.480469 59.148438 C 111.480469 64.300781 112.828125 68.398438 115.527344 71.300781 C 118.222656 74.25 121.765625 75.75 126.058594 75.75 C 129.304688 75.75 132.101562 75 134.449219 73.5 C 135.996094 72.5 137.34375 71.351562 138.390625 70.148438 L 138.390625 75 L 147.578125 75 L 147.578125 34 L 138.390625 34 L 138.390625 58.5 Z M 138.441406 58.5 "/>
<path style=" stroke:none;fill-rule:nonzero;fill:rgb(0%,23.529412%,27.450982%);fill-opacity:1;" d="M 174.585938 33.148438 C 171.992188 33.148438 169.496094 34 167.148438 35.601562 C 165.601562 36.648438 164.300781 37.949219 163.304688 39.449219 L 163.304688 34 L 154.019531 34 L 154.019531 75 L 163.304688 75 L 163.304688 52.449219 C 163.304688 50.5 163.804688 48.800781 164.703125 47.398438 C 165.652344 46 166.847656 44.851562 168.296875 44.101562 C 170.441406 42.949219 172.789062 42.699219 174.835938 43.199219 C 175.535156 43.351562 176.085938 43.550781 176.535156 43.800781 L 177.332031 44.199219 L 179.730469 34.300781 L 179.230469 34.050781 C 178.082031 33.398438 176.585938 33.148438 174.585938 33.148438 Z M 174.585938 33.148438 "/>
<path style=" stroke:none;fill-rule:nonzero;fill:rgb(0%,23.529412%,27.450982%);fill-opacity:1;" d="M 214.625 35.449219 C 212.53125 33.898438 209.632812 33.101562 205.941406 33.101562 C 202.996094 33.101562 200.296875 33.851562 197.902344 35.351562 C 196.253906 36.351562 194.855469 37.5 193.757812 38.75 L 193.757812 33.898438 L 184.570312 33.898438 L 184.570312 74.898438 L 193.707031 74.898438 L 193.707031 50.25 C 193.707031 48.699219 194.109375 47.25 194.957031 45.949219 C 195.804688 44.648438 196.953125 43.601562 198.402344 42.800781 C 199.847656 42 201.496094 41.601562 203.445312 41.601562 C 205.441406 41.449219 206.9375 41.75 208.035156 42.550781 C 209.136719 43.300781 209.882812 44.351562 210.332031 45.75 C 210.832031 47.199219 211.03125 48.800781 211.03125 50.648438 L 211.03125 74.949219 L 220.167969 74.949219 L 220.167969 50.148438 C 220.167969 47.101562 219.769531 44.25 218.96875 41.699219 C 218.171875 39.101562 216.722656 37 214.625 35.449219 Z M 214.625 35.449219 "/>
<path style=" stroke:none;fill-rule:nonzero;fill:rgb(0%,23.529412%,27.450982%);fill-opacity:1;" d="M 235.746094 34 L 226.558594 34 L 226.558594 75 L 235.746094 75 Z M 235.746094 34 "/>
<path style=" stroke:none;fill-rule:nonzero;fill:rgb(0%,23.529412%,27.450982%);fill-opacity:1;" d="M 283.921875 34 L 274.734375 34 L 274.734375 75 L 283.921875 75 Z M 283.921875 34 "/>
<path style=" stroke:none;fill-rule:nonzero;fill:rgb(0%,23.529412%,27.450982%);fill-opacity:1;" d="M 324.8125 41.699219 C 324.011719 39.101562 322.515625 37 320.46875 35.449219 C 318.371094 33.898438 315.476562 33.101562 311.78125 33.101562 C 308.835938 33.101562 306.140625 33.851562 303.742188 35.351562 C 302.09375 36.351562 300.695312 37.5 299.597656 38.75 L 299.597656 33.898438 L 290.414062 33.898438 L 290.414062 74.898438 L 299.550781 74.898438 L 299.550781 50.25 C 299.550781 48.699219 299.949219 47.25 300.796875 45.949219 C 301.644531 44.648438 302.792969 43.601562 304.242188 42.800781 C 305.691406 42 307.335938 41.601562 309.285156 41.601562 C 311.230469 41.449219 312.777344 41.75 313.878906 42.550781 C 314.976562 43.300781 315.722656 44.351562 316.175781 45.75 C 316.671875 47.199219 316.871094 48.800781 316.871094 50.648438 L 316.871094 74.949219 L 326.007812 74.949219 L 326.007812 50.148438 C 326.007812 47.050781 325.609375 44.25 324.8125 41.699219 Z M 324.8125 41.699219 "/>
<path style=" stroke:none;fill-rule:nonzero;fill:rgb(0%,23.529412%,27.450982%);fill-opacity:1;" d="M 96.554688 23.898438 L 87.367188 23.898438 L 87.367188 34 L 79.179688 34 L 79.179688 43 L 87.367188 43 L 87.367188 64.148438 L 87.417969 64.101562 C 87.867188 71.949219 91.414062 75 99.699219 75 C 102.394531 75 103.894531 74.851562 103.945312 74.851562 L 104.59375 74.800781 L 104.59375 66.351562 L 103.792969 66.398438 C 103.792969 66.398438 102.046875 66.550781 101.296875 66.550781 C 97.351562 66.550781 96.554688 65.648438 96.554688 61.148438 L 96.554688 42.949219 L 105.742188 42.949219 L 105.742188 33.949219 L 96.554688 33.949219 Z M 96.554688 23.898438 "/>
<path style=" stroke:none;fill-rule:nonzero;fill:rgb(0%,23.529412%,27.450982%);fill-opacity:1;" d="M 258.808594 23.898438 L 249.625 23.898438 L 249.625 34 L 241.4375 34 L 241.4375 43 L 249.625 43 L 249.625 64.148438 L 249.675781 64.101562 C 250.125 71.949219 253.667969 75 261.957031 75 C 264.652344 75 266.148438 74.851562 266.199219 74.851562 L 266.847656 74.800781 L 266.847656 66.351562 L 266.050781 66.398438 C 266.050781 66.398438 264.300781 66.550781 263.554688 66.550781 C 259.609375 66.550781 258.808594 65.648438 258.808594 61.148438 L 258.808594 42.949219 L 267.996094 42.949219 L 267.996094 33.949219 L 258.808594 33.949219 Z M 258.808594 23.898438 "/>
<path style=" stroke:none;fill-rule:nonzero;fill:rgb(0%,23.529412%,27.450982%);fill-opacity:1;" d="M 231.152344 27.148438 C 233.742188 27.148438 235.84375 25.046875 235.84375 22.449219 C 235.84375 19.855469 233.742188 17.75 231.152344 17.75 C 228.558594 17.75 226.457031 19.855469 226.457031 22.449219 C 226.457031 25.046875 228.558594 27.148438 231.152344 27.148438 Z M 231.152344 27.148438 "/>
<path style=" stroke:none;fill-rule:nonzero;fill:rgb(0%,23.529412%,27.450982%);fill-opacity:1;" d="M 279.328125 27.148438 C 281.921875 27.148438 284.023438 25.046875 284.023438 22.449219 C 284.023438 19.855469 281.921875 17.75 279.328125 17.75 C 276.738281 17.75 274.636719 19.855469 274.636719 22.449219 C 274.636719 25.046875 276.738281 27.148438 279.328125 27.148438 Z M 279.328125 27.148438 "/>
<path style=" stroke:none;fill-rule:nonzero;fill:rgb(0%,23.529412%,27.450982%);fill-opacity:1;" d="M 324.617188 23.898438 C 324.617188 23.25 324.78125 22.640625 325.105469 22.070312 C 325.429688 21.5 325.878906 21.050781 326.449219 20.71875 C 327.015625 20.390625 327.632812 20.226562 328.285156 20.226562 C 328.941406 20.226562 329.542969 20.390625 330.113281 20.714844 C 330.683594 21.039062 331.132812 21.488281 331.460938 22.058594 C 331.789062 22.628906 331.953125 23.246094 331.953125 23.898438 C 331.953125 24.554688 331.796875 25.144531 331.480469 25.703125 C 331.167969 26.269531 330.722656 26.71875 330.152344 27.058594 C 329.582031 27.398438 328.960938 27.570312 328.285156 27.570312 C 327.613281 27.570312 326.992188 27.398438 326.421875 27.066406 C 325.855469 26.730469 325.410156 26.28125 325.09375 25.714844 C 324.777344 25.148438 324.621094 24.550781 324.621094 23.90625 Z M 325.125 23.898438 C 325.125 24.464844 325.265625 24.988281 325.550781 25.480469 C 325.835938 25.96875 326.21875 26.355469 326.707031 26.636719 C 327.195312 26.914062 327.722656 27.054688 328.28125 27.054688 C 328.839844 27.054688 329.367188 26.914062 329.851562 26.628906 C 330.335938 26.34375 330.722656 25.964844 331.007812 25.480469 C 331.292969 24.996094 331.429688 24.46875 331.429688 23.894531 C 331.429688 23.320312 331.292969 22.804688 331.007812 22.320312 C 330.722656 21.835938 330.34375 21.449219 329.859375 21.164062 C 329.375 20.878906 328.851562 20.738281 328.277344 20.738281 C 327.703125 20.738281 327.1875 20.878906 326.703125 21.164062 C 326.21875 21.449219 325.835938 21.828125 325.550781 22.316406 C 325.265625 22.800781 325.125 23.324219 325.125 23.898438 Z M 329.769531 23.015625 C 329.769531 23.273438 329.699219 23.503906 329.558594 23.703125 C 329.417969 23.90625 329.222656 24.054688 328.972656 24.148438 L 330.132812 26.078125 L 329.3125 26.078125 L 328.304688 24.351562 L 327.648438 24.351562 L 327.648438 26.078125 L 326.921875 26.078125 L 326.921875 21.730469 L 328.195312 21.730469 C 328.734375 21.730469 329.128906 21.835938 329.382812 22.046875 C 329.632812 22.253906 329.761719 22.578125 329.761719 23.011719 Z M 327.652344 23.75 L 328.175781 23.75 C 328.433594 23.75 328.644531 23.679688 328.800781 23.546875 C 328.960938 23.410156 329.035156 23.238281 329.035156 23.03125 C 329.035156 22.785156 328.964844 22.609375 328.824219 22.503906 C 328.683594 22.398438 328.464844 22.34375 328.160156 22.34375 L 327.640625 22.34375 L 327.640625 23.746094 Z M 327.652344 23.75 "/>
</g>
</svg>
