<?xml version="1.0" encoding="UTF-8"?>
<svg xmlns="http://www.w3.org/2000/svg" xmlns:xlink="http://www.w3.org/1999/xlink" width="166px" height="50px" viewBox="0 0 166 50" version="1.1">
<g id="surface1">
<path style=" stroke:none;fill-rule:nonzero;fill:rgb(0%,58.823532%,100%);fill-opacity:1;" d="M 2.046875 18.601562 L 1.398438 22.726562 L 7.964844 22.726562 C 2.796875 27.398438 0 34.675781 0 39.375 C 0 42.851562 1.097656 45.550781 3.320312 47.398438 C 5.09375 48.898438 7.539062 49.726562 10.585938 49.925781 L 10.882812 49.949219 L 10.882812 48.5 L 10.660156 48.449219 C 7.886719 47.824219 3.269531 45.976562 3.21875 40.351562 C 3.195312 36.148438 7.515625 28.300781 12.507812 25 L 11.183594 32.625 L 15.402344 32.625 L 17.773438 18.625 Z M 2.046875 18.601562 "/>
<path style=" stroke:none;fill-rule:nonzero;fill:rgb(0%,58.823532%,100%);fill-opacity:1;" d="M 6.140625 0 C 3.96875 0 2.195312 1.773438 2.171875 3.925781 L 2.023438 14.976562 L 4.292969 15 L 6.539062 15 L 6.664062 4.523438 L 25.238281 4.523438 L 25.363281 32.898438 L 19.421875 32.898438 L 18.648438 37.425781 L 25.910156 37.425781 C 28.082031 37.425781 29.878906 35.449219 29.90625 33.273438 L 29.828125 0 Z M 6.140625 0 "/>
<path style=" stroke:none;fill-rule:nonzero;fill:rgb(0%,23.529412%,27.450982%);fill-opacity:1;" d="M 69.222656 29.25 C 69.222656 30.675781 68.769531 31.773438 67.871094 32.550781 C 66.949219 33.351562 65.902344 33.75 64.601562 33.75 C 63.605469 33.75 62.78125 33.523438 62.15625 33.050781 C 61.53125 32.574219 61.058594 31.949219 60.785156 31.175781 C 60.484375 30.375 60.335938 29.476562 60.335938 28.5 L 60.335938 17 L 55.742188 17 L 55.742188 29.574219 C 55.742188 32.148438 56.414062 34.199219 57.761719 35.648438 C 59.109375 37.125 60.882812 37.875 63.03125 37.875 C 64.652344 37.875 66.050781 37.5 67.222656 36.75 C 67.996094 36.25 68.671875 35.675781 69.195312 35.074219 L 69.195312 37.5 L 73.789062 37.5 L 73.789062 17 L 69.195312 17 L 69.195312 29.25 Z M 69.222656 29.25 "/>
<path style=" stroke:none;fill-rule:nonzero;fill:rgb(0%,23.529412%,27.450982%);fill-opacity:1;" d="M 87.292969 16.574219 C 85.996094 16.574219 84.746094 17 83.574219 17.800781 C 82.800781 18.324219 82.152344 18.976562 81.652344 19.726562 L 81.652344 17 L 77.007812 17 L 77.007812 37.5 L 81.652344 37.5 L 81.652344 26.226562 C 81.652344 25.25 81.902344 24.398438 82.351562 23.699219 C 82.824219 23 83.425781 22.425781 84.148438 22.050781 C 85.222656 21.476562 86.394531 21.351562 87.417969 21.601562 C 87.769531 21.675781 88.042969 21.773438 88.265625 21.898438 L 88.667969 22.101562 L 89.863281 17.148438 L 89.613281 17.023438 C 89.039062 16.699219 88.292969 16.574219 87.292969 16.574219 Z M 87.292969 16.574219 "/>
<path style=" stroke:none;fill-rule:nonzero;fill:rgb(0%,23.529412%,27.450982%);fill-opacity:1;" d="M 107.3125 17.726562 C 106.265625 16.949219 104.816406 16.550781 102.96875 16.550781 C 101.496094 16.550781 100.148438 16.925781 98.949219 17.675781 C 98.128906 18.175781 97.429688 18.75 96.878906 19.375 L 96.878906 16.949219 L 92.285156 16.949219 L 92.285156 37.449219 L 96.855469 37.449219 L 96.855469 25.125 C 96.855469 24.351562 97.054688 23.625 97.476562 22.976562 C 97.902344 22.324219 98.476562 21.800781 99.199219 21.398438 C 99.925781 21 100.75 20.800781 101.722656 20.800781 C 102.71875 20.726562 103.46875 20.875 104.019531 21.273438 C 104.566406 21.648438 104.941406 22.175781 105.167969 22.875 C 105.417969 23.601562 105.515625 24.398438 105.515625 25.324219 L 105.515625 37.476562 L 110.085938 37.476562 L 110.085938 25.074219 C 110.085938 23.550781 109.882812 22.125 109.484375 20.851562 C 109.085938 19.550781 108.363281 18.5 107.3125 17.726562 Z M 107.3125 17.726562 "/>
<path style=" stroke:none;fill-rule:nonzero;fill:rgb(0%,23.529412%,27.450982%);fill-opacity:1;" d="M 117.871094 17 L 113.28125 17 L 113.28125 37.5 L 117.871094 37.5 Z M 117.871094 17 "/>
<path style=" stroke:none;fill-rule:nonzero;fill:rgb(0%,23.529412%,27.450982%);fill-opacity:1;" d="M 141.960938 17 L 137.367188 17 L 137.367188 37.5 L 141.960938 37.5 Z M 141.960938 17 "/>
<path style=" stroke:none;fill-rule:nonzero;fill:rgb(0%,23.529412%,27.450982%);fill-opacity:1;" d="M 162.40625 20.851562 C 162.007812 19.550781 161.257812 18.5 160.234375 17.726562 C 159.183594 16.949219 157.738281 16.550781 155.890625 16.550781 C 154.417969 16.550781 153.070312 16.925781 151.871094 17.675781 C 151.046875 18.175781 150.347656 18.75 149.800781 19.375 L 149.800781 16.949219 L 145.207031 16.949219 L 145.207031 37.449219 L 149.773438 37.449219 L 149.773438 25.125 C 149.773438 24.351562 149.972656 23.625 150.398438 22.976562 C 150.824219 22.324219 151.398438 21.800781 152.121094 21.398438 C 152.84375 21 153.667969 20.800781 154.640625 20.800781 C 155.617188 20.726562 156.390625 20.875 156.9375 21.273438 C 157.488281 21.648438 157.863281 22.175781 158.085938 22.875 C 158.335938 23.601562 158.4375 24.398438 158.4375 25.324219 L 158.4375 37.476562 L 163.003906 37.476562 L 163.003906 25.074219 C 163.003906 23.523438 162.804688 22.125 162.40625 20.851562 Z M 162.40625 20.851562 "/>
<path style=" stroke:none;fill-rule:nonzero;fill:rgb(0%,23.529412%,27.450982%);fill-opacity:1;" d="M 48.277344 11.949219 L 43.683594 11.949219 L 43.683594 17 L 39.589844 17 L 39.589844 21.5 L 43.683594 21.5 L 43.683594 32.074219 L 43.710938 32.050781 C 43.933594 35.976562 45.707031 37.5 49.851562 37.5 C 51.199219 37.5 51.945312 37.425781 51.972656 37.425781 L 52.296875 37.398438 L 52.296875 33.175781 L 51.898438 33.199219 C 51.898438 33.199219 51.023438 33.273438 50.648438 33.273438 C 48.675781 33.273438 48.277344 32.824219 48.277344 30.574219 L 48.277344 21.476562 L 52.871094 21.476562 L 52.871094 16.976562 L 48.277344 16.976562 Z M 48.277344 11.949219 "/>
<path style=" stroke:none;fill-rule:nonzero;fill:rgb(0%,23.529412%,27.450982%);fill-opacity:1;" d="M 129.40625 11.949219 L 124.8125 11.949219 L 124.8125 17 L 120.71875 17 L 120.71875 21.5 L 124.8125 21.5 L 124.8125 32.074219 L 124.835938 32.050781 C 125.0625 35.976562 126.835938 37.5 130.976562 37.5 C 132.324219 37.5 133.074219 37.425781 133.097656 37.425781 L 133.425781 37.398438 L 133.425781 33.175781 L 133.023438 33.199219 C 133.023438 33.199219 132.152344 33.273438 131.777344 33.273438 C 129.804688 33.273438 129.40625 32.824219 129.40625 30.574219 L 129.40625 21.476562 L 134 21.476562 L 134 16.976562 L 129.40625 16.976562 Z M 129.40625 11.949219 "/>
<path style=" stroke:none;fill-rule:nonzero;fill:rgb(0%,23.529412%,27.450982%);fill-opacity:1;" d="M 115.574219 13.574219 C 116.871094 13.574219 117.921875 12.523438 117.921875 11.226562 C 117.921875 9.925781 116.871094 8.875 115.574219 8.875 C 114.28125 8.875 113.230469 9.925781 113.230469 11.226562 C 113.230469 12.523438 114.28125 13.574219 115.574219 13.574219 Z M 115.574219 13.574219 "/>
<path style=" stroke:none;fill-rule:nonzero;fill:rgb(0%,23.529412%,27.450982%);fill-opacity:1;" d="M 139.664062 13.574219 C 140.960938 13.574219 142.011719 12.523438 142.011719 11.226562 C 142.011719 9.925781 140.960938 8.875 139.664062 8.875 C 138.367188 8.875 137.316406 9.925781 137.316406 11.226562 C 137.316406 12.523438 138.367188 13.574219 139.664062 13.574219 Z M 139.664062 13.574219 "/>
<path style=" stroke:none;fill-rule:nonzero;fill:rgb(0%,23.529412%,27.450982%);fill-opacity:1;" d="M 162.308594 11.949219 C 162.308594 11.625 162.390625 11.320312 162.550781 11.035156 C 162.714844 10.75 162.941406 10.523438 163.222656 10.359375 C 163.507812 10.195312 163.816406 10.113281 164.144531 10.113281 C 164.46875 10.113281 164.773438 10.195312 165.054688 10.359375 C 165.339844 10.519531 165.566406 10.746094 165.730469 11.03125 C 165.894531 11.316406 165.976562 11.621094 165.976562 11.949219 C 165.976562 12.277344 165.898438 12.574219 165.742188 12.851562 C 165.582031 13.136719 165.359375 13.359375 165.078125 13.53125 C 164.792969 13.699219 164.480469 13.785156 164.144531 13.785156 C 163.804688 13.785156 163.496094 13.699219 163.210938 13.53125 C 162.925781 13.363281 162.703125 13.140625 162.546875 12.859375 C 162.386719 12.574219 162.3125 12.273438 162.3125 11.953125 Z M 162.5625 11.949219 C 162.5625 12.234375 162.632812 12.496094 162.773438 12.738281 C 162.917969 12.984375 163.109375 13.175781 163.355469 13.316406 C 163.597656 13.457031 163.859375 13.527344 164.140625 13.527344 C 164.417969 13.527344 164.683594 13.457031 164.925781 13.316406 C 165.167969 13.171875 165.359375 12.984375 165.503906 12.738281 C 165.644531 12.496094 165.714844 12.234375 165.714844 11.949219 C 165.714844 11.660156 165.644531 11.402344 165.503906 11.160156 C 165.359375 10.917969 165.171875 10.726562 164.929688 10.582031 C 164.6875 10.441406 164.425781 10.371094 164.136719 10.371094 C 163.851562 10.371094 163.59375 10.441406 163.351562 10.582031 C 163.109375 10.726562 162.917969 10.914062 162.773438 11.15625 C 162.632812 11.398438 162.5625 11.664062 162.5625 11.949219 Z M 164.882812 11.507812 C 164.882812 11.636719 164.847656 11.753906 164.78125 11.851562 C 164.710938 11.953125 164.613281 12.027344 164.488281 12.074219 L 165.066406 13.039062 L 164.65625 13.039062 L 164.152344 12.175781 L 163.824219 12.175781 L 163.824219 13.039062 L 163.460938 13.039062 L 163.460938 10.863281 L 164.097656 10.863281 C 164.367188 10.863281 164.566406 10.917969 164.691406 11.023438 C 164.816406 11.128906 164.882812 11.289062 164.882812 11.503906 Z M 163.824219 11.875 L 164.085938 11.875 C 164.21875 11.875 164.324219 11.839844 164.398438 11.773438 C 164.480469 11.703125 164.515625 11.621094 164.515625 11.515625 C 164.515625 11.390625 164.480469 11.304688 164.414062 11.253906 C 164.34375 11.199219 164.234375 11.171875 164.082031 11.171875 L 163.820312 11.171875 L 163.820312 11.871094 Z M 163.824219 11.875 "/>
</g>
</svg>
